<?xml version="1.0" encoding="UTF-8"?>
<svg width="170" height="170" viewBox="0 0 170 170" version="1.1" xmlns="http://www.w3.org/2000/svg">
<rect fill="#26326A" rx="19.75" ry="19.75" width="170" height="170"/>
<rect fill="#FFF" x="19" y="19" width="132" height="132"/>
<path d="M75.541,113.309 V70.994 L75.511,69.31 61.287,113.309 H51.497 L37.598,69.765 C37.576,69.688 37.553,69.61 37.531,69.532 37.561,70.183 37.583,70.688 37.597,71.047 L37.597,113.309 H27.526 V55.674 H43.72 L56.026,95.259 C56.318,96.264 56.578,97.436 56.803,98.758 57.019,97.411 57.291,96.234 57.612,95.25 L70.344,55.674 H86.322 V113.309 H75.541"/>
<path d="M118.917,114.458 C110.838,114.458 104.399,111.755 99.778,106.423 95.18,101.119 92.848,93.734 92.848,84.471 92.848,75.181 95.186,67.782 99.797,62.478 104.431,57.147 110.863,54.444 118.916,54.444 126.969,54.444 133.414,57.16 138.073,62.517 142.709,67.847 145.06,75.233 145.06,84.47 145.06,93.732 142.722,101.118 138.111,106.423 133.479,111.755 127.02,114.458 118.917,114.458 M118.917,64.113 C114.717,64.113 111.42,65.884 108.841,69.527 106.247,73.19 104.933,78.165 104.933,84.313 104.933,90.491 106.242,95.493 108.824,99.181 111.39,102.849 114.692,104.631 118.918,104.631 123.144,104.631 126.459,102.842 129.051,99.16 131.657,95.458 132.979,90.463 132.979,84.312 132.979,78.189 131.659,73.221 129.052,69.546 126.459,65.891 123.144,64.113 118.917,64.113"/>
</svg>
