<?xml version="1.0" encoding="UTF-8" standalone="no"?>
<svg xmlns="http://www.w3.org/2000/svg" height="400" width="400" version="1.1">
<g transform="matrix(0.125,0,0,-0.125,-354.48394,411.05328)">
	<path d="m 4436.0585,3288.4262 c -883.9548,0 -1600.187,-716.3376 -1600.187,-1599.731 0,-884.03915 716.2322,-1600.269127 1600.187,-1600.269127 883.6243,0 1599.8131,716.229977 1599.8131,1600.269127 0,883.3934 -716.1888,1599.731 -1599.8131,1599.731"
		fill="#00bb85"/>
	<path d="m 5310.3503,1688.6952 c 0,-483.2991 -391.8345,-874.7822 -874.6255,-874.7822 -483.4585,0 -875.2111,391.4831 -875.2111,874.7822 0,482.6534 391.7526,874.2441 875.2111,874.2441 482.791,0 874.6255,-391.5907 874.6255,-874.2441"
		fill="#ffffff"/>
	<path d="m 4745.9136,1857.4732 c -54.3694,73.3022 -142.7964,112.8057 -233.4516,112.8057 -162.893,0 -272.8805,-125.5071 -272.8805,-283.5212 0,-161.6738 111.2899,-278.785 277.1323,-278.785 86.4034,0 173.4849,42.1945 229.1998,108.6078 l 0,-318.7192 c -88.384,-27.0173 -152.1289,-47.4688 -234.7971,-47.4688 -143.0441,0 -278.7254,54.3577 -384.601,150.3717 -112.0219,101.5036 -163.8188,234.8684 -163.8188,386.5317 0,140.4689 52.7656,274.4795 150.5251,375.5525 100.3644,102.9029 245.4321,164.903 389.531,164.903 85.8113,0 164.2385,-18.9445 243.1608,-51.4515 l 0,-318.8267"/>
</g>
</svg>
