<?xml version="1.0" encoding="UTF-8" standalone="no"?>
<svg xmlns="http://www.w3.org/2000/svg" height="400" width="400" version="1.1">
<g transform="matrix(0.125,0,0,-0.125,-270.96195,448.79867)">
	<path d="m 3768.3711,3590.3894 c -884.2664,0 -1600.6755,-717.0291 -1600.6755,-1599.9786 0,-883.4094 716.4091,-1600.02144 1600.6755,-1600.02144 883.2552,0 1599.3244,716.61204 1599.3244,1600.02144 0,882.9495 -716.0692,1599.9786 -1599.3244,1599.9786"
		fill="#9c5e31"/>
	<path d="m 4642.2858,1990.4108 c 0,-482.9628 -391.638,-874.3612 -874.5474,-874.3612 -483.2847,0 -874.5441,391.3984 -874.5441,874.3612 0,482.9629 391.2594,874.3602 874.5441,874.3602 482.9094,0 874.5474,-391.3973 874.5474,-874.3602"
		fill="#ffffff"/>
	<path d="m 3782.5267,2250.4488 0,-170.735 292.2701,0 0,-224.8551 -292.2701,0 0,-402.3264 -265.7926,0 0,1023.6509 588.1433,0 0,-225.7344 -322.3507,0"/>
</g>
</svg>
