<?xml version="1.0" encoding="UTF-8" standalone="no"?>
<svg xmlns="http://www.w3.org/2000/svg" viewBox="0 0 400 400" height="400" width="400" version="1.1">
<g transform="matrix(0.125,0,0,-0.125,-118.28504,454.19672)">
	<path d="m 2546.4673,3633.5738 c -883.6179,0 -1600.18695,-716.0019 -1600.18695,-1599.2468 0,-883.9981 716.56905,-1600.75337 1600.18695,-1600.75337 883.6243,0 1599.8131,716.75527 1599.8131,1600.75337 0,883.2449 -716.1888,1599.2468 -1599.8131,1599.2468"
		fill="#ff9500"/>
	<path d="m 3421.0174,2034.327 c 0,-483.3255 -391.4254,-874.8503 -874.5501,-874.8503 -483.071,0 -874.5362,391.5248 -874.5362,874.8503 0,482.4646 391.4652,874.0971 874.5362,874.0971 483.1247,0 874.5501,-391.6325 874.5501,-874.0971"
		fill="#ffffff"/>
	<path d="m 3091.3671,2094.2719 c -2.5726,-148.9473 -13.5843,-277.3391 -104.1964,-404.3318 -100.7519,-140.23 -251.277,-200.9282 -422.5337,-200.9282 -321.2005,0 -545.3089,218.6857 -545.3089,540.3646 0,332.2257 225.0772,551.019 554.6414,551.019 210.5349,0 373.6324,-95.2445 461.7688,-286.3792 l -252.5794,-105.899 c -36.2427,97.2893 -113.9918,162.9381 -220.7931,162.9381 -175.5516,0 -266.5404,-167.2429 -266.5404,-323.078 0,-158.8485 94.95,-320.2798 270.3617,-320.2798 115.3372,0 203.7212,59.1915 214.0224,177.6821 l -216.8749,0 0,208.8922 528.0325,0"
		fill="#232021"/>
</g></svg>
