<?xml version="1.0" encoding="UTF-8" standalone="no"?>
<svg xmlns="http://www.w3.org/2000/svg" height="400" width="400" version="1.1">
<g transform="matrix(0.125,0,0,-0.125,-330.35806,408.83848)">
	<path fill="#b5b5ac"
		d="m 4243.0514,3270.7079 c -883.9548,0 -1600.187,-716.0855 -1600.187,-1600.0539 0,-883.86081 716.2322,-1599.94626 1600.187,-1599.94626 883.6243,0 1599.8131,716.08545 1599.8131,1599.94626 0,883.9684 -716.1888,1600.0539 -1599.8131,1600.0539"/>
	<path fill="#ffffff"
		d="m 5117.3432,1670.654 c 0,-482.4483 -391.8345,-874.06764 -874.6255,-874.06764 -483.4585,0 -875.2111,391.61934 -875.2111,874.06764 0,483.3092 391.7526,874.0676 875.2111,874.0676 482.791,0 874.6255,-390.7584 874.6255,-874.0676"/>
	<path d="m 4431.1754,1787.634 0,395.1707 265.8623,0 0,-1023.5481 -265.8623,0 0,419.7075 -384.3534,0 0,-419.7075 -266.1207,0 0,1023.5481 266.1207,0 0,-395.1707 384.3534,0"/>
</g>
</svg>
