<?xml version="1.0" encoding="UTF-8" standalone="no"?>
<svg xmlns="http://www.w3.org/2000/svg" height="400" width="400" version="1.1">
<g transform="matrix(0.125,0,0,-0.125,-198.82292,451.22213)">
	<path d="m 3190.7703,3609.7771 c -883.6179,0 -1600.187,-716.8388 -1600.187,-1600.0539 0,-883.8608 716.5691,-1599.94624 1600.187,-1599.94624 883.6243,0 1599.8131,716.08544 1599.8131,1599.94624 0,883.2151 -716.1888,1600.0539 -1599.8131,1600.0539"
		fill="#f62e36"/>
	<path d="m 4065.0621,2009.7232 c 0,-483.2016 -391.8345,-874.6057 -874.2918,-874.6057 -483.7922,0 -874.5362,391.4041 -874.5362,874.6057 0,482.5559 390.744,874.0676 874.5362,874.0676 482.4573,0 874.2918,-391.5117 874.2918,-874.0676"
		fill="#ffffff"/>
	<path d="m 2731.6171,2521.8739 262.2887,0 207.2518,-547.4492 220.5455,547.4492 264.7644,0 154.4862,-1022.9023 -266.1637,0 -74.8427,588.3437 -2.5188,0 -245.8088,-588.3437 -105.8756,0 -234.7972,588.3437 -2.4757,0 -85.5207,-588.3437 -264.6083,0 173.2749,1022.9023"/>
</g>
</svg>
