<?xml version="1.0" encoding="UTF-8" standalone="no"?>
<svg xmlns="http://www.w3.org/2000/svg" viewBox="0 0 400 400" height="400" width="400" version="1.1">
<g transform="matrix(0.125,0,0,-0.125,-198.82292,451.22213)">
	<path d="m 3190.7703,3609.7771 c -883.6179,0 -1600.187,-716.8388 -1600.187,-1600.0539 0,-883.8608 716.5691,-1599.94624 1600.187,-1599.94624 883.6243,0 1599.8131,716.08544 1599.8131,1599.94624 0,883.2151 -716.1888,1600.0539 -1599.8131,1600.0539"
		fill="#f62e36"/>
	<path d="m 4065.0621,2009.7232 c 0,-483.2016 -391.8345,-874.6057 -874.2918,-874.6057 -483.7922,0 -874.5362,391.4041 -874.5362,874.6057 0,482.5559 390.744,874.0676 874.5362,874.0676 482.4573,0 874.2918,-391.5117 874.2918,-874.0676"
		fill="#fff"/>
	<path d="m 2601.9365,2424.06557 176.7694,0 139.6774,-409.1844 148.6366,409.1844 178.4379,0 104.1159,-764.5562 -179.3809,0 -50.4402,439.7505 -1.6976,0 -165.6628,-439.7505 -71.3548,0 -158.2416,439.7505 -1.6685,0 -57.6367,-439.7505 -178.3327,0 116.7786,764.5562"/>
	<path transform="translate(6701.5849,261.37227)matrix(8,0,0,-8,1590.5834,3609.777)"
		d="m -612.91797,179.14062 0,97.36133 20.91016,0 0,-6.22851 a 28.424234,30.711241 0 0 0 18.62304,7.53515 28.424234,30.711241 0 0 0 28.42383,-30.71093 28.424234,30.711241 0 0 0 -28.42383,-30.71094 28.424234,30.711241 0 0 0 -18.62304,7.55859 l 0,-44.80469 -20.91016,0 z m 33.97852,54.13672 a 13.395329,13.819682 0 0 1 13.39453,13.82032 13.395329,13.819682 0 0 1 -13.39453,13.81836 13.395329,13.819682 0 0 1 -13.39453,-13.81836 13.395329,13.819682 0 0 1 13.39453,-13.82032"/>
</g>
</svg>
