<?xml version="1.0" encoding="UTF-8" standalone="no"?>
<svg xmlns="http://www.w3.org/2000/svg" height="400" width="400" version="1.1">
<g transform="matrix(0.125,0,0,-0.125,-353.76997,466.87619)translate(1937.843,1252.9005)">
	<path fill="#00ac9b"
		d="m 2492.3591,2482.109 c -883.5166,0 -1600.04235,-716.7189 -1600.04235,-1600.22596 0,-883.6039368 716.52575,-1599.77402 1600.04235,-1599.77402 883.1861,0 1599.9576,716.1700832 1599.9576,1599.77402 0,883.50706 -716.7715,1600.22596 -1599.9576,1600.22596"/>
	<path fill="#ffffff"
		d="m 3366.8812,881.24813 c 0,-482.31797 -391.7882,-873.9296003 -874.5221,-873.9296003 -483.4013,0 -875.1076,391.6116303 -875.1076,873.9296003 0,483.37257 391.7063,874.13407 875.1076,874.13407 482.7339,0 874.5221,-390.7615 874.5221,-874.13407"/>
	<path d="m 2016.8254,1393.9235 266.3798,0 487.3082,-625.53907 2.2709,0 0,625.53907 266.4228,0 0,-1023.41373 -266.4228,0 -487.3081,627.39001 -2.271,0 0,-627.39001 -266.3798,0 0,1023.41373"/>
</g>
</svg>
