<?xml version="1.0" encoding="UTF-8" standalone="no"?>
<svg xmlns="http://www.w3.org/2000/svg" height="400" width="400" version="1.1">
<g transform="matrix(0.125,0,0,-0.125,-340.29223,419.17354)">
	<path d="m 4322.5248,3353.3883 c -883.9548,0 -1600.187,-716.2781 -1600.187,-1599.5156 0,-884.42159 716.2322,-1600.48444 1600.187,-1600.48444 883.6243,0 1599.8131,716.06285 1599.8131,1600.48444 0,883.2375 -716.1888,1599.5156 -1599.8131,1599.5156"
		fill="#009bbf"/>
	<path d="m 5196.8166,1753.0115 c 0,-482.5781 -391.8345,-874.41046 -874.6255,-874.41046 -483.4585,0 -875.2111,391.83236 -875.2111,874.41046 0,483.3317 391.7526,874.8411 875.2111,874.8411 482.791,0 874.6255,-391.5094 874.6255,-874.8411"
		fill="#ffffff"/>
	<path d="m 4449.0889,1242.2301 -266.4112,0 0,797.874 -219.566,0 0,225.3036 705.9307,0 0,-225.3036 -219.9535,0 0,-797.874"/>
</g>
</svg>
