<?xml version="1.0" encoding="UTF-8" standalone="no"?>
<svg xmlns="http://www.w3.org/2000/svg" height="400" width="400" version="1.1">
<g transform="matrix(0.125,0,0,-0.125,-345.25934,446.2138)translate(1937.843,1252.9005)">
	<path fill="#c1a470"
		d="m 2424.4186,2316.8099 c -883.9547,0 -1600.18687,-716.0614 -1600.18687,-1599.89244 0,-883.72345 716.23217,-1600.10766 1600.18687,-1600.10766 883.6243,0 1599.8132,716.38421 1599.8132,1600.10766 0,883.83104 -716.1889,1599.89244 -1599.8132,1599.89244"/>
	<path fill="#ffffff"
		d="m 3298.7105,716.91746 c 0,-483.4006 -391.8345,-874.68391 -874.2919,-874.68391 -483.7921,0 -875.5448,391.28331 -875.5448,874.68391 0,482.43204 391.7527,873.93064 875.5448,873.93064 482.4574,0 874.2919,-391.4986 874.2919,-873.93064"/>
	<path d="m 1918.0112,1228.9433 319.2629,0 191.3102,-277.9661 191.6977,277.9661 318.9724,0 -377.5505,-531.61152 0,-491.25641 -266.196,0 0,491.25641 -377.4967,531.61152"/>
</g>
</svg>
