<?xml version="1.0" encoding="UTF-8"?>
<svg id="Calque_1" xmlns="http://www.w3.org/2000/svg" width="1024" height="1024" viewBox="0 0 1024 1024">
  <defs>
    <style>
    .cls-1{fill:#fff;}
    .cls-2{fill:#101d9f;}
    .cls-3{fill:#34B3D0;}
    .cls-4{fill:none;stroke:#0A50A1;stroke-miterlimit:10;stroke-width:46px;}</style>
  </defs>
  <rect class="cls-3" width="1024" height="1024"/>
  <circle class="cls-1" cx="519.828979653434089" cy="497.688680354350709" r="392.189069810877299"/>
  <circle class="cls-4" cx="589.162696525093679" cy="497.896266727995226" r="300.412174078939074"/>
  <g>
    <path class="cls-2" d="M752.23834228515625,625.91802978515625l-74.918212890625-212.10125732421875-81.8056640625,259.0511474609375-89.1805419921875-253.2078857421875-74.6551513671875,215.28875732421875c41.97021484375,35.8074951171875,96.40533447265625,57.435302734375,155.8990478515625,57.435302734375,63.930908203125,0,122.02490234375-24.968505859375,165.0814208984375-65.6768798828125l-.4208984375-.7891845703125Z"/>
    <path class="cls-2" d="M386.71533203125,582.8817138671875l119.61859130859375-329.50738525390625,84.71514892578125,251.92889404296875,87.53564453125-257.08477783203125,111.77935791015625,332.8720703125c23.7744140625-37.2811279296875,37.55572509765625-81.55419921875,37.55572509765625-129.0484619140625,0-132.73724365234375-107.604736328125-240.342041015625-240.34197998046875-240.342041015625s-240.342041015625,107.60479736328125-240.342041015625,240.342041015625c0,48.54437255859375,14.40576171875,93.71746826171875,39.15582275390625,131.50482177734375l.32373046875-.6651611328125Z"/>
  </g>
</svg>
