<?xml version="1.0" encoding="UTF-8" standalone="no"?>
<svg
   version="1.0"
   width="1024.000000pt"
   height="1024.000000pt"
   viewBox="0 0 1024.000000 1024.000000"
   preserveAspectRatio="xMidYMid meet"
   id="svg10"
   sodipodi:docname="Number_prefix_Chiba_monorail.svg"
   inkscape:version="1.1.2 (b8e25be833, 2022-02-05)"
   xmlns:inkscape="http://www.inkscape.org/namespaces/inkscape"
   xmlns:sodipodi="http://sodipodi.sourceforge.net/DTD/sodipodi-0.dtd"
   xmlns="http://www.w3.org/2000/svg"
   xmlns:svg="http://www.w3.org/2000/svg">
  <defs
     id="defs14" />
  <sodipodi:namedview
     id="namedview12"
     pagecolor="#ffffff"
     bordercolor="#666666"
     borderopacity="1.0"
     inkscape:pageshadow="2"
     inkscape:pageopacity="0.0"
     inkscape:pagecheckerboard="0"
     inkscape:document-units="pt"
     showgrid="false"
     inkscape:zoom="0.29370117"
     inkscape:cx="275.79052"
     inkscape:cy="420.49543"
     inkscape:window-width="1920"
     inkscape:window-height="991"
     inkscape:window-x="-9"
     inkscape:window-y="-9"
     inkscape:window-maximized="1"
     inkscape:current-layer="g8" />
  <g
     transform="translate(0.000000,1024.000000) scale(0.100000,-0.100000)"
     fill="#000000"
     stroke="none"
     id="g8">
    <path
       d="M4780 10214 c-745 -65 -1316 -220 -1930 -525 -471 -235 -873 -514 -1233 -856 -459 -438 -787 -882 -1066 -1443 -275 -554 -432 -1089 -508 -1735 -25 -215 -25 -855 0 -1070 76 -646 233 -1181 508 -1735 235 -471 514 -873 856 -1233 438 -459 882 -787 1443 -1066 554 -275 1089 -432 1735 -508 215 -25 855 -25 1070 0 646 76 1181 233 1735 508 561 279 1005 607 1443 1066 342 360 621 762 856 1233 275 554 432 1089 508 1735 25 215 25 855 0 1070 -76 646 -233 1181 -508 1735 -279 561 -607 1005 -1066 1443 -360 342 -762 621 -1233 856 -544 270 -1066 425 -1690 502 -131 16 -239 21 -520 24 -195 1 -375 1 -400 -1z m595 -604 c200 -13 381 -34 555 -66 1527 -280 2804 -1330 3373 -2774 419 -1060 419 -2240 0 -3300 -410 -1040 -1196 -1893 -2198 -2385 -1256 -617 -2714 -617 -3970 0 -1002 492 -1788 1345 -2198 2385 -419 1060 -419 2240 0 3300 569 1444 1846 2493 3373 2774 354 65 721 88 1065 66z"
       id="path2"
       style="fill:#008db0;fill-opacity:1" />
    <path
       d="M2910 7000 c-207 -26 -374 -75 -555 -165 -470 -233 -762 -670 -857 -1279 -29 -189 -32 -609 -5 -786 48 -322 155 -600 311 -811 335 -452 832 -671 1429 -629 402 29 692 152 932 394 117 118 188 218 266 373 56 112 149 367 137 378 -11 12 -673 212 -680 206 -4 -4 -19 -46 -33 -95 -129 -444 -420 -676 -820 -652 -132 7 -211 27 -320 81 -263 128 -408 352 -476 730 -27 152 -38 543 -20 719 32 308 115 522 264 682 161 172 359 254 618 254 145 0 234 -18 344 -70 191 -89 320 -235 389 -440 14 -41 29 -76 34 -78 10 -3 684 156 691 164 10 9 -58 193 -111 302 -183 377 -528 625 -988 707 -111 20 -437 28 -550 15z"
       id="path4"
       style="fill:#005c92;fill-opacity:1" />
    <path
       d="M5202 5168 l3 -1783 325 0 325 0 3 1385 c1 761 6 1388 11 1393 4 4 164 -613 357 -1385 l349 -1393 336 -3 c262 -2 339 1 346 10 6 7 165 627 353 1378 189 751 346 1374 350 1385 7 16 9 17 14 5 3 -8 7 -636 9 -1395 l2 -1380 325 0 325 0 3 1783 2 1782 -540 0 -540 0 -6 -27 c-54 -217 -623 -2385 -627 -2390 -4 -3 -9 -4 -11 -2 -2 2 -144 537 -315 1189 -171 652 -316 1195 -321 1208 l-10 22 -535 0 -535 0 2 -1782z"
       id="path6"
       style="fill:#005c92;fill-opacity:1" />
  </g>
</svg>
