<?xml version="1.0" encoding="UTF-8" standalone="no"?>
<svg xmlns="http://www.w3.org/2000/svg" width="98.364059" height="45.275002" version="1.1">
<path fill="#273e6c" transform="translate(0,-1006.6122)" d="m 70.1625,1006.6122 9.2,0.1625 7.587501,0.325 4,0.2125 7.41406,0.4398 -4.08906,1.2102 -4.675,1.6625 -5.675,2.4875 -5.637501,2.95 -3.75,2.2625 -2.3375,1.5625 -4.7875,3.525 -4.7125,4.05 -2.325,2.1625 -2.00351,2.1482 15.885541,20.1143 -11.694531,0 -10.2125,-12.9875 -1.7,2.2625 -2.4625,3.6875 -2.6375,4.5375 -1.3,2.5 -12.551562,0 3.189062,-5.2875 3.225,-4.8375 3,-3.9625 3.95,-4.5875 1.572656,-1.7063 -10.060938,-12.6937 11.619531,0 5.17109,6.509 1.91016,-1.559 3.6875,-2.6 3.8625,-2.3875 1.875,-1.1125 4.45,-2.225 3.6875,-1.5875 2.2125,-0.8375 3.2,-1.1 3.225,-0.975 4.825002,-1.25 7.61328,-1.4219 1.09604,-0.1969 -8.74682,0.5813 -8.237502,0.7375 -3.85,0.4625 -4.825,0.55 -1.4,0.225 -3.5375,0.475 -3.9625,0.675 -5.05,0.9125 -8.025,1.775 -8.875,2.4625 -4.675,1.5625 -3.0875,1.0625 -4.3625,1.7226 0,30.6149 -10.262956,0 -0.124043,-26.0399 -6.737957,3.5899 -1.8625,1.0875 -4.0375,2.325 L 0,1035.0114 0,1021.8544 5.725039,1019.0372 l 4.2,-1.7938 4.1,-1.6187 3.2125,-1.2 6.65,-2.125 5.4,-1.45 2.7125,-0.6125 5.575801,-1.0549 3.536699,-0.6076 3.8125,-0.5625 6.25,-0.6375 1.479073,-0.1239 9.220927,-0.5011 z"/>
</svg>
