<?xml version="1.0" standalone="no"?>
<!DOCTYPE svg PUBLIC "-//W3C//DTD SVG 20010904//EN"
 "http://www.w3.org/TR/2001/REC-SVG-20010904/DTD/svg10.dtd">
<svg version="1.0" xmlns="http://www.w3.org/2000/svg"
 width="1024.000000pt" height="1024.000000pt" viewBox="0 0 1024.000000 1024.000000"
 preserveAspectRatio="xMidYMid meet">

<g transform="translate(0.000000,1024.000000) scale(0.100000,-0.100000)"
fill="#000000" stroke="none">
<path d="M319 10226 c-140 -39 -259 -153 -299 -285 -20 -68 -20 -78 -20 -4824
0 -5201 -4 -4811 57 -4916 38 -65 113 -134 180 -168 l58 -28 4810 -3 c3830 -2
4818 0 4850 10 54 17 144 70 177 105 34 36 80 117 96 168 10 32 12 1024 10
4850 l-3 4811 -27 52 c-40 78 -84 127 -152 171 -120 78 365 71 -4937 70 -3811
-1 -4763 -3 -4800 -13z m9510 -147 c136 -51 242 -166 270 -292 14 -58 15
-9283 2 -9339 -33 -142 -168 -276 -310 -309 -20 -5 -2120 -9 -4666 -9 -3834 0
-4639 2 -4682 13 -68 18 -157 72 -200 122 -19 22 -49 69 -66 105 l-32 65 0
4680 0 4680 28 57 c50 103 128 175 242 225 l50 22 4655 1 4655 0 54 -21z"/>
<path d="M2345 7660 c-185 -8 -268 -24 -449 -87 -404 -140 -776 -470 -1022
-905 -148 -261 -273 -632 -319 -950 -47 -328 -40 -854 16 -1185 99 -587 354
-1075 744 -1425 290 -260 616 -404 1017 -447 125 -14 501 -14 626 0 380 41
687 161 972 380 226 173 436 466 574 801 52 126 166 522 166 576 0 12 -9 23
-22 27 -13 4 -338 10 -723 12 l-700 5 -32 -132 c-43 -181 -102 -300 -198 -396
-38 -39 -90 -80 -115 -92 -99 -47 -318 -54 -446 -14 -147 46 -300 200 -384
386 -226 499 -245 1269 -43 1801 114 301 271 463 495 509 216 45 375 -14 490
-181 42 -61 98 -190 98 -226 0 -53 -8 -52 803 -50 412 0 751 4 754 7 14 14
-138 398 -227 577 -142 281 -337 522 -560 691 -174 131 -435 252 -630 292
-152 31 -510 41 -885 26z"/>
<path d="M5705 5096 l0 -2418 930 5 c956 4 1044 8 1257 48 279 52 566 194 833
413 364 300 666 786 790 1270 61 240 70 325 70 676 0 282 -3 329 -23 445 -61
352 -161 626 -331 913 -97 165 -176 269 -310 406 -266 272 -544 452 -857 555
-231 76 -381 85 -1624 97 l-735 7 0 -2417z m1826 1160 c208 -44 412 -238 549
-519 115 -238 145 -368 144 -612 -1 -187 -17 -290 -75 -474 -78 -243 -228
-476 -394 -610 -125 -101 -188 -117 -505 -131 -124 -5 -237 -10 -252 -10 l-28
0 0 1192 0 1191 248 -7 c146 -4 274 -12 313 -20z"/>
</g>
</svg>
