<?xml version="1.0" encoding="utf-8"?>
<!-- Generator: Adobe Illustrator 23.1.0, SVG Export Plug-In . SVG Version: 6.00 Build 0)  -->
<svg version="1.1" id="レイヤー_1" xmlns="http://www.w3.org/2000/svg" xmlns:xlink="http://www.w3.org/1999/xlink" x="0px"
	 y="0px" viewBox="0 0 311.81 311.81" style="enable-background:new 0 0 311.81 311.81;" xml:space="preserve">
<style type="text/css">
	.st0{fill:#FFFFFF;}
	.st1{fill:#01BDF2;}
	.st2{fill:#FCFCFC;}
</style>
<polygon class="st0" points="0,0 0,0 0,0 0,0 "/>
<ellipse transform="matrix(0.118 -0.993 0.993 0.118 -17.1835 292.0953)" class="st1" cx="155.84" cy="155.72" rx="154.77" ry="154.77"/>
<ellipse transform="matrix(0.1181 -0.993 0.993 0.1181 -17.1989 292.0757)" class="st2" cx="155.84" cy="155.72" rx="125.39" ry="125.39"/>
<g>
	<g>
		<path class="st1" d="M63.17,210.04V100.67h21.85v41.97h40.18v-41.97h21.79v109.37H125.2v-47.21H85.02v47.21H63.17z"/>
		<path class="st1" d="M209.72,212.66c-12.76,0-23.09-3.4-30.98-10.21s-11.84-16.37-11.84-28.69H188c0,6.18,2.01,11.1,6.04,14.74
			c4.03,3.64,9.34,5.46,15.95,5.46c5.84,0,10.52-1.12,14.05-3.37s5.29-5.66,5.29-10.25c0-3.04-0.86-5.54-2.58-7.48
			c-1.72-1.94-4.38-3.64-7.97-5.09c-3.6-1.45-9.9-3.29-18.9-5.54c-11.76-3.24-19.65-7.31-23.65-12.19c-4-4.89-6.01-11.2-6.01-18.93
			c0-10.12,3.56-18.17,10.69-24.13c7.13-5.96,16.07-8.94,26.84-8.94c12.13,0,21.65,3.07,28.57,9.2
			c6.92,6.13,10.52,14.81,10.79,26.03h-21.11c-0.45-5.83-2.35-10.05-5.7-12.64c-3.35-2.59-7.99-3.89-13.91-3.89
			c-4.8,0-8.5,1.12-11.1,3.37c-2.6,2.24-3.9,5.26-3.9,9.05c0,4.04,1.72,7.03,5.16,8.98c3.44,1.94,8.46,3.64,15.07,5.09
			c11.76,3.04,19.99,5.85,24.67,8.42c4.68,2.57,8.21,6.02,10.59,10.36c2.38,4.34,3.56,9.53,3.56,15.56
			c0,10.82-3.91,19.38-11.74,25.66C230.87,209.52,221.21,212.66,209.72,212.66z"/>
	</g>
</g>
</svg>
