<?xml version="1.0" encoding="utf-8"?>
<svg viewBox="0 0 500 500" xmlns="http://www.w3.org/2000/svg">
  <path fill="#66c542" d="M 178.215 88.709 L 177.789 88.213 L 178.215 88.709 Z M 177.574 88.709 L 178.287 88.995 L 178.214 88.921 L 177.36 88.423 C 177.287 88.496 177.214 88.496 177.214 88.496 L 177.574 88.709 Z M 177.574 88.709" style=""/>
  <path fill="#66c542" d="M 177.362 88.425 L 178.215 88.923 L 178.003 88.777 L 177.505 88.35 C 177.433 88.35 177.433 88.423 177.36 88.423 M 178.001 88.213 L 177.93 88.213 L 178.214 88.638 L 178.001 88.213 Z M 178.001 88.213" style=""/>
  <path fill="#66c542" d="M 178.073 88.78 L 178.358 88.995 L 177.646 88.282 C 177.646 88.355 177.573 88.355 177.499 88.355 L 178.073 88.78 Z M 178.287 88.78 L 178.36 88.854 L 178.287 88.357 L 178.287 88.78 Z M 177.076 88.568 L 178.003 88.852 L 177.576 88.705 L 177.221 88.561 L 177.074 88.561 M 178.287 88.852 L 178.14 88.284 L 178.069 88.284 L 178.287 88.852 Z M 178.215 88.852 L 177.789 88.213 C 177.717 88.213 177.717 88.213 177.717 88.286 L 178.215 88.852 Z M 201.06 449.02 L 178.358 89.207 L 178.358 473.359 L 179.426 472.72 C 186.897 464.962 194.085 457.134 201.06 449.021 M 220.701 424.397 C 226.608 416.568 232.372 408.527 237.781 400.415 L 178.358 89.138 L 220.701 424.397 Z M 220.701 424.397" style=""/>
  <path fill="#66c542" d="M 178.001 88.213 L 178.215 88.638 L 177.931 88.213 L 178.001 88.213 Z M 178.356 88.852 L 178.356 88.779 L 178.285 88.352 L 178.356 88.352 L 178.356 88.852 Z M 178.212 88.354 L 178.212 88.5 L 178.212 88.354 Z M 178.356 88.852 L 178.073 88.282 L 178.146 88.282 L 178.356 88.852 Z M 178.356 89.136 L 178.356 89.063 L 178.43 89.209 L 178.503 89.421 L 178.43 89.209 L 178.576 89.493 L 178.43 89.138 L 178.356 89.138 L 178.43 89.138 L 178.356 89.064 L 178.43 89.138 L 302.4 259.721 C 303.893 254.526 305.175 249.189 306.527 243.922 L 178.43 89.138 L 178.576 89.211 L 310.018 229.192 C 311.015 224.496 311.799 219.799 312.652 215.101 L 178.789 89.352 L 314.929 202.007 C 315.568 197.88 315.997 193.682 316.565 189.41 L 178.574 89.139 L 178.648 89.213 L 318.061 177.671 C 318.488 173.9 318.702 170.126 318.986 166.284 L 179.147 89.425 L 319.841 155.61 C 320.054 152.194 320.125 148.635 320.268 145.219 L 178.364 88.998 L 178.364 88.357 L 499.107 192.33 L 488.503 170.269 L -1.543 30.074 L 168.542 85.582 C 168.258 85.37 167.831 85.082 167.476 84.87 L 177.794 88.214 L 178.221 88.713 L 177.794 88.214 L 177.721 88.214 L 178.29 88.854 L 177.649 88.286 L 177.576 88.286 L 178.289 88.927 L 178.362 89 L 178.076 88.788 L 178.223 88.932 L 177.439 88.436 L 177.365 88.436 L 178.221 88.932 L 178.294 89.005 L 177.581 88.721 L 178.008 88.866 L 177.081 88.582 L 168.542 85.593 C 170.323 86.875 171.958 88.227 173.239 89.934 C 176.228 93.777 178.292 98.404 178.292 103.598 L 178.292 89.009 L 178.365 89.082 L 178.365 89.229 L 178.356 89.136 Z M 178.356 89.136" style=""/>
  <path fill="#66c542" d="M 252.37 377.143 C 256.64 369.884 260.838 362.413 264.752 354.868 L 178.499 89.421 L 252.37 377.143 Z M 275.213 333.59 C 278.274 326.901 281.12 320.211 283.967 313.451 L 178.571 89.493 L 275.213 333.59 Z M 291.297 294.449 C 293.433 288.542 295.497 282.635 297.488 276.587 L 178.43 89.138 L 291.297 294.449 Z M 177.433 88.354 L 178.001 88.78 L 177.503 88.354 L 177.433 88.354 Z M 177.148 88.568 L 177.574 88.713 L 177.219 88.5 L 177.148 88.568 Z M 434.766 45.157 L 428.148 30.07 L -1.477 30.07 L 434.766 45.157 Z M 448.075 76.825 L 440.959 60.102 L -1.548 30.07 L 448.075 76.825 Z M 448.075 76.825" style=""/>
  <path fill="#66c542" d="M 462.094 111.198 L 454.978 93.55 L -1.477 30.07 L 462.094 111.198 Z M 462.094 111.198" style=""/>
  <path fill="#66c542" d="M 478.817 148.275 L 470.064 129.702 L -1.477 30.07 L 478.817 148.275 Z M 478.817 148.275" style=""/>
</svg>
