<svg version="1.0" xmlns="http://www.w3.org/2000/svg" width="400px" height="400px" viewBox="0 0 400 400">
	<path fill="#FFFFFF" d="M199.952,23.87c-97.074,0-176.051,79.082-176.051,176.157c0,97.022,78.978,176.053,176.051,176.053
		c97.126,0,176.103-79.03,176.103-176.053C376.055,102.951,297.078,23.87,199.952,23.87"/>
	<path fill="#5AB65C" d="M199.952,400C89.733,400,0.031,310.298,0.031,200.026C0.031,89.754,89.733,0,199.952,0
		c110.321,0,200.026,89.754,200.026,200.026C399.979,310.298,310.273,400,199.952,400 M199.952,23.87
		c-97.074,0-176.051,79.082-176.051,176.157c0,97.022,78.978,176.053,176.051,176.053c97.126,0,176.103-79.03,176.103-176.053
		C376.055,102.951,297.078,23.87,199.952,23.87"/>
	<polygon points="113.963,144.349 67.36,144.349 67.36,118.752 193.096,118.752 193.096,144.349 146.545,144.349 146.545,281.325
		113.963,281.325"/>
	<path d="M210.986,118.779h35.16c35.055,0,76.657-1.16,76.657,43.975c0,19.1-12.837,34.953-33.562,37.686v0.565
		c8.866,0.619,14.022,9.487,17.22,16.705l26.188,63.615h-36.396l-19.593-50.78c-4.535-12.113-8.762-16.807-22.58-16.807h-10.413
		v67.587h-32.683V118.779z M243.669,188.091h10.722c15.983,0,34.388-2.267,34.388-22.476c0-19.539-18.095-21.291-34.388-21.291
		h-10.722V188.091z"/>
</svg>
