<?xml version="1.0" encoding="UTF-8"?>
<svg version="1.0" xmlns="http://www.w3.org/2000/svg" width="400" height="400" viewBox="0 0 400 400">
<circle cx="200" cy="200" r="190" stroke="#D5007F" stroke-width="20" fill="#fff"/>
<g fill="#D5007F">
	<path d="M151.028,121.307 H193.091 L121.524,197.47 196.48,278.385 H153.597 L83.083,198.857 V278.385 H50.162 V121.307 H83.083 V196.084z"/>
	<path d="M349.63,197.47c0,61.604-9.758,82.559-73.338,82.559c-58.805,0-80.531-8.012-80.531-77.345 c0-66.38,11.942-82.968,76.937-82.968C329.908,119.715,349.63,130.5,349.63,197.47 M268.896,149.656 c-37.262,0-40.266,7.345-40.266,50.433c0,47.276,3.8,50.05,47.866,50.05c37.901,0,40.47-7.396,40.47-50.05 C316.967,152.224,312.55,149.656,268.896,149.656"/>
</g>
</svg>
