<?xml version="1.0" encoding="utf-8"?>
<!-- Generator: Adobe Illustrator 23.1.0, SVG Export Plug-In . SVG Version: 6.00 Build 0)  -->
<svg version="1.1" id="レイヤー_1" xmlns="http://www.w3.org/2000/svg" xmlns:xlink="http://www.w3.org/1999/xlink" x="0px"
	 y="0px" viewBox="0 0 311.81 311.81" style="enable-background:new 0 0 311.81 311.81;" xml:space="preserve">
<style type="text/css">
	.st0{fill:#FFFFFF;}
	.st1{fill:#EF59A1;}
	.st2{fill:#FCFCFC;}
</style>
<polygon class="st0" points="0,0 0,0 0,0 0,0 "/>
<ellipse transform="matrix(0.118 -0.993 0.993 0.118 -17.1895 292.4594)" class="st1" cx="156.04" cy="155.91" rx="154.77" ry="154.77"/>
<ellipse transform="matrix(0.1181 -0.993 0.993 0.1181 -17.205 292.4398)" class="st2" cx="156.04" cy="155.91" rx="122.27" ry="122.27"/>
<g>
	<g>
		<path class="st1" d="M79.29,175.67h22.85v3.13c0,6.1,0.93,10.44,2.8,13.04c1.87,2.59,4.99,3.89,9.35,3.89
			c3.44,0,6.17-1.16,8.19-3.49c2.01-2.33,3.02-5.5,3.02-9.51c0-5.62-4.76-11.85-14.26-18.69c-0.63-0.43-1.09-0.75-1.38-0.96
			c-5-3.58-8.99-6.52-11.97-8.83c-2.98-2.3-5.2-4.2-6.66-5.7c-3.93-3.96-6.62-7.69-8.08-11.19c-1.46-3.5-2.18-7.82-2.18-12.96
			c0-9.89,3.07-17.78,9.21-23.67c6.14-5.88,14.4-8.82,24.78-8.82c10.72,0,18.79,2.73,24.2,8.18c5.41,5.46,8.12,13.56,8.12,24.31
			v3.13h-22.2v-0.64c0-5.56-0.91-9.75-2.73-12.56c-1.82-2.81-4.55-4.21-8.19-4.21c-3.3,0-5.93,1.1-7.9,3.29
			c-1.97,2.19-2.95,5.16-2.95,8.9c0,6.37,6.21,13.61,18.63,21.74c3.2,2.14,5.68,3.82,7.42,5.05c7.03,4.92,11.92,9.64,14.67,14.16
			c2.74,4.52,4.11,9.91,4.11,16.17c0,11.5-3.06,20.16-9.17,25.99c-6.11,5.83-15.16,8.75-27.15,8.75c-11.26,0-19.52-2.77-24.78-8.3
			c-5.27-5.54-7.9-14.21-7.9-26.03c0-0.43,0.02-1.1,0.07-2.01C79.27,176.93,79.29,176.21,79.29,175.67z"/>
		<path class="st1" d="M179.13,212.17V93.84h22.63v97.47h32.82v20.86H179.13z"/>
	</g>
</g>
</svg>
